# xmcd CD database file
#
# Track frame offsets:
#	150
#	13910
#	20153
#	31508
#
# Disc length: 650 seconds
#
# Revision: 2
# Processed by: cddbd v1.5.2PL0 Copyright (c) Steve Scherf et al.
# Submitted via: CDex 1.94
#
DISCID=26028804
DTITLE=Mega City Four - There Goes My Happy Marriage CDEp
DYEAR=1990
DGENRE=Indie
TTITLE0=Finish
TTITLE1=Severance
TTITLE2=Thanx
TTITLE3=Square Through A Circle
EXTD=YEAR: 1990
EXTT0=
EXTT1=
EXTT2=
EXTT3=
PLAYORDER=
